<?xml version="1.0" encoding="UTF-8" standalone="no"?>
<svg width="51px" height="52px" viewBox="0 0 51 52" version="1.1" xmlns="http://www.w3.org/2000/svg" xmlns:xlink="http://www.w3.org/1999/xlink">
    <!-- Generator: Sketch 39.1 (31720) - http://www.bohemiancoding.com/sketch -->
    <g id="Page-1" stroke="none" stroke-width="1" fill="none" fill-rule="evenodd">
        <g id="ES-logo">
            <g id="Layer_1">
                <g id="Group">
                    <rect id="Rectangle-path" fill="#00AEEF" x="1.22844966" y="39.937023" width="48.4421275" height="10.7853115"></rect>
                    <g>
                        <rect id="Rectangle-path" fill="#FFFFFF" x="0.0366241611" y="0.100078689" width="50.8261208" height="39.8369443"></rect>
                        <g transform="translate(1.197987, 1.193443)" id="Shape">
                            <g>
                                <path d="M24.2491309,4.55588197 C34.2098758,4.55588197 43.0426309,9.44217705 48.4724195,16.9346098 L48.4724195,0.0958163934 L0.0321744966,0.0958163934 L0.0321744966,16.9283016 C5.45682886,9.44098361 14.2906107,4.55588197 24.2491309,4.55588197 L24.2491309,4.55588197 Z" fill="#00AEEF"></path>
                                <path d="M24.2491309,5.74523279 C14.1641376,5.74523279 5.26070134,10.879423 0.0320033557,18.6615213 L0.0320033557,37.5535475 L48.4724195,37.5535475 L48.4724195,18.668 C43.2440638,10.8824918 34.337547,5.74523279 24.2491309,5.74523279 L24.2491309,5.74523279 Z" fill="#00AEEF"></path>
                                <path d="M24.2491309,5.74523279 C34.3373758,5.74523279 43.2438926,10.8824918 48.4724195,18.668 L48.4724195,16.9347803 C43.0426309,9.44234754 34.2098758,4.55605246 24.2491309,4.55605246 C14.2906107,4.55605246 5.45665772,9.44098361 0.0320033557,16.9286426 L0.0320033557,18.6615213 C5.26070134,10.879423 14.1643087,5.74523279 24.2491309,5.74523279 L24.2491309,5.74523279 Z" fill="#FFFFFF"></path>
                            </g>
                            <g transform="translate(0.684564, 12.616393)" fill="#FFFFFF">
                                <path d="M4.11850671,12.9507279 C4.01633557,13.1498623 3.9412047,13.3350164 3.87959396,13.5142033 C1.93269463,14.0938754 0.635959732,13.5791607 0.549533557,13.541823 C0.355802013,13.4615213 0.131436242,13.550859 0.0504865772,13.7436852 C-0.0335436242,13.9375344 0.0552785235,14.1583213 0.250379195,14.2408393 C0.342110738,14.2820984 1.69087248,14.8315934 3.70537248,14.3477377 C3.70485906,14.3729705 3.7004094,14.4012721 3.7004094,14.4263344 C3.7004094,14.9908328 3.93897987,15.3752918 4.25148322,15.5771541 C5.12618456,16.1455738 7.05169128,15.6606951 9.84573826,12.8189377 C9.6653557,13.332459 9.50328523,13.8942295 9.39940268,14.4762885 C9.39546644,14.5011803 9.39375503,14.5276066 9.39375503,14.550623 C9.39375503,14.7105443 9.48805369,14.8552918 9.63797315,14.914623 C9.93986577,15.0368656 10.1134027,14.7867541 10.2664027,14.5686951 L10.6536946,13.9936262 C10.9894732,13.4908459 11.7435201,12.3592918 12.2550604,11.7678557 C12.1927651,12.0928131 12.1301275,12.459882 12.1301275,12.8075148 C12.1301275,13.2773902 12.2442785,13.707541 12.6257517,13.9300328 C12.9456141,14.1145049 13.4574966,14.1804852 14.5683725,13.5208525 C14.6614732,13.7769311 14.8497282,13.8981508 14.9577181,13.9487869 C15.6670973,14.2764721 17.0037081,13.5679082 18.3986779,12.2385836 C18.2102517,12.6590164 18.0666644,13.0090361 18.0291846,13.1558295 C18.0201141,13.1964066 18.016349,13.2354492 18.016349,13.2704 C18.016349,13.446859 18.1236544,13.5743869 18.2475604,13.6306492 C18.554245,13.7651672 18.7491745,13.4974951 18.9032013,13.2790951 L19.3236946,12.6736787 C19.6728221,12.1606689 20.4929295,10.9585311 20.9721242,10.4593311 C21.1141711,10.804918 21.3669463,11.2412066 21.8220101,11.4954098 C21.6898893,11.7934295 21.6233154,12.0510426 21.6233154,12.2665443 C21.6233154,12.532 21.7234329,12.7324984 21.9233255,12.8680393 C22.2820369,13.1111607 22.8266074,12.9776656 23.394453,12.6699279 C21.5822416,14.4614557 20.7487852,16.2459934 20.7226007,17.0380984 C20.721745,17.0527607 20.721745,17.0687869 20.721745,17.0834492 C20.721745,17.525023 20.9394362,17.7021639 21.0737819,17.7684852 C21.3488054,17.9060721 21.6845839,17.8204852 22.074443,17.5134295 C23.4394631,16.4331934 24.4329362,13.8708721 24.9407114,12.302518 C25.6215101,11.7497836 26.4188557,11.211541 27.3341174,10.7198426 C27.0370168,11.2393311 26.8686141,11.7303475 26.8686141,12.1277639 C26.8686141,12.270977 26.890349,12.4034492 26.9317651,12.5192131 C27.0368456,12.7972852 27.2625805,12.9751082 27.5495839,13.0044328 C28.1792114,13.0729705 29.0501477,12.4157246 30.0773356,11.1532328 C29.9897114,11.4041967 29.9026007,11.6478295 29.8161745,11.886859 C26.9642819,14.1252459 25.682094,16.5191213 25.5179698,17.8175869 C25.5032517,17.9234623 25.4958926,18.0206426 25.4958926,18.1110033 C25.4958926,18.6284459 25.7053691,18.8681574 25.8977315,18.9771016 C26.1147383,19.1000262 26.4837181,19.1588459 27.0255503,18.7460852 C27.6288221,18.2872918 29.0679463,16.0408918 30.4610336,12.3400262 C32.3110671,10.9246033 34.8465201,9.5700459 38.2195369,8.64154754 C38.388453,8.59398033 38.5012349,8.44156066 38.5012349,8.27277377 C38.5012349,8.24055082 38.4954161,8.2056 38.4866879,8.17303607 C38.4298691,7.96929836 38.2195369,7.85165902 38.0138255,7.90706885 C35.0684899,8.72048525 32.7348121,9.85698361 30.9119899,11.0884459 C31.1293389,10.4462033 31.3453188,9.76696393 31.5553087,9.05260328 C31.5657483,9.01697049 31.570198,8.98184918 31.570198,8.94536393 C31.570198,8.79976393 31.4846275,8.66132459 31.3454899,8.59892459 C31.1717819,8.52152131 30.9677819,8.58323934 30.8668087,8.74179672 C28.9662886,11.7151738 27.8896409,12.2549508 27.6522685,12.2503475 C27.6385772,12.2244328 27.6289933,12.1876066 27.6289933,12.1340721 C27.6289933,11.7951344 27.9206174,10.9481311 28.8610369,9.95552787 C28.927953,9.88340984 28.9661174,9.78946885 28.9661174,9.69433443 C28.9661174,9.61863607 28.9411309,9.54276721 28.8957785,9.47746885 C28.7915537,9.33101639 28.5991913,9.27424262 28.4333557,9.34380328 C27.2333154,9.84965246 26.1991107,10.4482492 25.2997651,11.0828197 C25.309349,11.0466754 25.3173926,11.0185443 25.3192752,11.0066098 C25.3259497,10.9750689 25.3334799,10.9454033 25.3334799,10.9143738 C25.3334799,10.7757639 25.253557,10.6436328 25.126057,10.5781639 C25.1181846,10.5752656 25.1127081,10.5752656 25.1056913,10.5723672 C25.3682215,10.3665836 25.6387953,10.1401705 25.9234027,9.87863607 C26.2230705,9.60005246 26.300255,9.34840656 26.300255,9.16086557 C26.300255,9.07902951 26.2848523,9.01100328 26.2675671,8.95763934 C26.1794295,8.68860328 25.9295638,8.5114623 25.5867685,8.47054426 C24.7428725,8.37251148 23.406604,9.08482623 22.2086174,10.8407213 C21.800104,10.6230033 21.6402584,10.0914098 21.5661544,9.84862951 L21.5362047,9.75179016 C21.486745,9.59238033 21.3412752,9.49247213 21.1721879,9.49332459 C20.9141074,9.49639344 20.6356611,9.67387541 20.2006208,10.1831344 C20.2064396,10.171541 20.2122584,10.1582426 20.2197886,10.1483541 C20.2442617,10.0951607 20.2550436,10.0388984 20.2550436,9.98314754 C20.2550436,9.85340328 20.1884698,9.72860328 20.0717517,9.6573377 C19.9023221,9.55623607 19.6844597,9.59885902 19.5679128,9.75537049 C17.4390906,12.6112787 15.5753658,13.404918 15.2837416,13.260341 C15.2816879,13.2516459 15.2750134,13.2313574 15.2750134,13.1824262 C15.2750134,13.1502033 15.2808322,13.1031475 15.2904161,13.0475672 C15.7665302,12.7086295 16.3278725,12.2656918 16.9932685,11.6894295 C17.6098893,11.1557902 17.751594,10.7246164 17.751594,10.4397246 C17.751594,10.3096393 17.721302,10.2116066 17.6951174,10.1475016 C17.5688154,9.85340328 17.2645268,9.69041311 16.8969161,9.72280656 C16.1069295,9.7906623 15.1196174,10.7118295 14.6226242,12.5860459 C13.3885268,13.4255475 13.0553154,13.2980197 13.0104765,13.2719344 C12.8425872,13.175777 12.8559362,12.6492984 13.047443,11.7083541 C13.1309597,11.2903082 13.1699799,11.1003803 13.0756812,10.9264787 C12.9837785,10.7554754 12.8237617,10.6540328 12.6368758,10.6458492 C12.2358926,10.6264131 11.7813423,11.0449705 10.8371577,12.374977 C11.2116141,11.4885902 11.5763154,10.8801049 11.5835034,10.8710689 C11.6213255,10.8084984 11.6386107,10.7409836 11.6386107,10.6736393 C11.6386107,10.5544656 11.5829899,10.4368262 11.4770537,10.3619803 C11.3151544,10.2463869 11.0897617,10.2774164 10.9608926,10.4327344 C7.60344966,14.5155016 5.32060067,15.3642098 4.66889597,14.9420721 C4.52975839,14.850859 4.46198658,14.674059 4.46198658,14.4372459 C4.46198658,14.3393836 4.47773154,14.2290754 4.50117785,14.1116066 C5.75855034,13.6657705 7.21170805,12.8095607 8.75077852,11.2383082 C9.65919463,10.3135607 10.1464329,9.44575738 10.1464329,8.78680656 C10.1464329,8.6383082 10.122302,8.50123279 10.0725,8.3762623 C9.93781208,8.03425574 9.62736242,7.82574426 9.2234698,7.80494426 C8.01726846,7.74851148 5.97196309,9.31652459 4.11850671,12.9507279 L4.11850671,12.9507279 Z M9.18735906,8.56482623 C9.32906376,8.57215738 9.35148322,8.62688525 9.36312081,8.65348197 C9.37458725,8.68775082 9.38331544,8.73344262 9.38331544,8.78578361 C9.38331544,9.11687869 9.0922047,9.80123279 8.20364094,10.7067148 C7.01352685,11.9211279 5.88793289,12.6753836 4.88367785,13.1333246 C6.64933893,9.74769836 8.45316443,8.53038689 9.18735906,8.56482623 L9.18735906,8.56482623 Z M16.7163624,10.5607738 C16.8412953,10.4941115 16.9299463,10.4801311 16.981802,10.4801311 C16.9624631,10.5703213 16.8650839,10.7900852 16.4919966,11.1152131 C16.2140638,11.3539016 15.9576946,11.5697443 15.722547,11.7600131 C16.1108658,10.9474492 16.5534362,10.6456787 16.7163624,10.5607738 L16.7163624,10.5607738 Z M25.1898926,9.25224918 C25.3293725,9.22002623 25.4250403,9.21917377 25.4861376,9.22718689 C25.4657718,9.25310164 25.4436946,9.28259672 25.4021074,9.31908197 C24.5250101,10.1296 23.7528221,10.6456787 23.1413356,10.8456656 C24.098698,9.60789508 24.9278758,9.3143082 25.1898926,9.25224918 L25.1898926,9.25224918 Z M24.0374295,11.2857049 C23.2979295,11.9371541 22.6251745,12.2373902 22.3869463,12.2382426 C22.3898557,12.1666361 22.4218591,12.000918 22.5700671,11.6935213 C23.0061342,11.7095475 23.4938859,11.576223 24.0374295,11.2857049 L24.0374295,11.2857049 Z M23.7413557,13.3916197 C23.221943,14.7226492 22.4855235,16.2156459 21.5986711,16.9160262 C21.5550302,16.9506361 21.5180638,16.9775738 21.4865738,16.9995672 C21.5264497,16.4493902 22.2017718,14.9715672 23.7413557,13.3916197 L23.7413557,13.3916197 Z M26.2605503,18.1087869 C26.2605503,17.9340328 26.2999128,17.6539148 26.4428154,17.2517246 C26.7931409,16.2546885 27.6712651,14.8361967 29.226594,13.3836066 C28.0565034,16.1803541 26.9612013,17.8342951 26.5597047,18.1444197 C26.4282685,18.242623 26.3365369,18.2866098 26.2875906,18.3009311 C26.2732148,18.2663213 26.2605503,18.209377 26.2605503,18.1087869 L26.2605503,18.1087869 Z"></path>
                                <path d="M37.1957718,0.0782557377 C36.9589128,0.0782557377 36.7487517,0.220957377 36.6612987,0.440721311 C36.6612987,0.440721311 34.564651,5.79825574 34.3240268,6.41015082 C33.6661611,6.44612459 27.9312282,6.7475541 27.9312282,6.7475541 C27.6271107,6.76375082 27.3885403,7.01539672 27.3885403,7.31597377 C27.3885403,7.32552131 27.3902517,7.3360918 27.3902517,7.3466623 C27.4065101,7.66002623 27.6748591,7.90093115 27.9928389,7.88592787 L34.7539329,7.52874754 C34.9771007,7.51800656 35.1749396,7.37513443 35.2570872,7.16730492 C35.2570872,7.16730492 36.5372215,3.89045246 37.1945738,2.21468852 C37.8481611,3.8875541 39.1231611,7.14752787 39.1231611,7.14752787 C39.2042819,7.35535738 39.399896,7.49567213 39.6213523,7.50931148 C39.6213523,7.50931148 43.1126275,7.7084459 44.896943,7.81142295 C43.5211409,8.94928525 40.8222483,11.1846033 40.8222483,11.1846033 C40.6879027,11.2944 40.6134564,11.4541508 40.6134564,11.6217443 C40.6134564,11.6696525 40.6192752,11.7170492 40.6310839,11.7629115 C40.6310839,11.7629115 41.4973993,15.1371148 41.9440772,16.8665836 C40.4412886,15.901259 37.5132383,14.018859 37.5132383,14.018859 C37.3266946,13.8976393 37.0836745,13.8976393 36.8962752,14.0157902 C36.8962752,14.0157902 33.9360503,15.8942689 32.4027987,16.8648787 C32.8705268,15.1848525 33.7108289,12.1610098 33.7108289,12.1610098 C33.7216107,12.1113967 33.7294832,12.0587148 33.7294832,12.0094426 C33.7294832,11.7589902 33.5641611,11.5313836 33.3095034,11.4606295 C33.0053859,11.376918 32.688604,11.555082 32.6056007,11.8587279 L30.904802,17.9899541 C30.8419933,18.2150033 30.9249966,18.4591475 31.1153054,18.5986098 C31.3056141,18.7384131 31.5640369,18.7450623 31.7639295,18.6202623 C31.7639295,18.6202623 36.6450403,15.5248131 37.2003926,15.1730885 C37.7502685,15.5273705 42.5507718,18.6115672 42.5507718,18.6115672 C42.7494664,18.7384131 43.0030973,18.7327869 43.195802,18.595882 C43.3458926,18.4862557 43.4343725,18.3142295 43.4343725,18.1340197 C43.4343725,18.0871344 43.4265,18.0375213 43.4145201,17.9925115 C43.4145201,17.9925115 41.9892584,12.4549377 41.8295839,11.8295738 C42.3260638,11.4169836 46.7432114,7.7626623 46.7432114,7.7626623 C46.8751611,7.65218361 46.9502919,7.49106885 46.9502919,7.32518033 C46.9502919,7.26431475 46.9401946,7.20549508 46.9203423,7.14718689 C46.8488054,6.92486557 46.6460034,6.7704 46.411198,6.75676066 C46.411198,6.75676066 40.711349,6.43095082 40.0546812,6.39241967 C39.8142282,5.78308197 37.7276779,0.44055082 37.7276779,0.44055082 C37.6427919,0.221809836 37.4300638,0.0782557377 37.1957718,0.0782557377 L37.1957718,0.0782557377 L37.1957718,0.0782557377 Z"></path>
                            </g>
                        </g>
                    </g>
                    <polygon id="Shape" fill="#FFFFFF" points="49.670406 39.937023 49.670406 50.7223344 1.22844966 50.7223344 1.22844966 39.937023 0.0366241611 39.937023 0.0366241611 50.7223344 0.0366241611 51.9098098 1.22844966 51.9098098 49.670406 51.9098098 50.8610336 51.9098098 50.862745 51.9098098 50.862745 39.937023"></polygon>
                    <g transform="translate(3.251678, 42.111475)" id="Shape" fill="#FFFFFF">
                        <polygon points="0.0660604027 6.2359082 0.0660604027 0.200498361 3.1875 0.200498361 3.1875 0.86984918 0.837734899 0.86984918 0.837734899 2.80919344 3.01961074 2.80919344 3.01961074 3.47854426 0.837734899 3.47854426 0.837734899 5.56740984 3.23781544 5.56740984 3.23781544 6.23607869 0.0660604027 6.2359082"></polygon>
                        <polygon points="8.35835235 0.200498361 8.35835235 6.2359082 7.30070134 6.2359082 4.90969128 1.00368525 4.89274832 1.00368525 4.89274832 6.2359082 4.2045906 6.2359082 4.2045906 0.200498361 5.29492953 0.200498361 7.65342282 5.36691148 7.66968121 5.36691148 7.66968121 0.200498361 8.35835235 0.200498361"></polygon>
                        <polygon points="9.42918121 6.2359082 9.42918121 0.200498361 12.5511342 0.200498361 12.5511342 0.86984918 10.2013691 0.86984918 10.2013691 2.80919344 12.383245 2.80919344 12.383245 3.47854426 10.2013691 3.47854426 10.2013691 5.56740984 12.6012785 5.56740984 12.6012785 6.23607869 9.42918121 6.2359082"></polygon>
                        <path d="M14.3024195,0.86984918 L15.4692584,0.86984918 C16.0643154,0.86984918 16.2832047,1.3540459 16.2832047,1.78897049 C16.2832047,2.31681311 16.0145134,2.79231475 15.4600168,2.79231475 L14.3022483,2.79231475 L14.3022483,0.86984918 L14.3024195,0.86984918 L14.3024195,0.86984918 Z M15.2082685,3.46149508 C15.4692584,3.46149508 16.0643154,3.49405902 16.1230168,4.23041311 C16.1902752,5.03257705 16.1404732,5.81905574 16.3585067,6.23607869 L17.1642383,6.23607869 C17.0459799,5.8615082 16.9622919,4.9151082 16.953906,4.65630164 C16.9124899,3.44359344 16.6614262,3.21104262 15.964198,3.10192787 L15.964198,3.0845377 C16.6768289,2.95939672 17.071651,2.4168918 17.071651,1.70594098 C17.071651,0.953731148 16.6942852,0.200498361 15.619349,0.200498361 L13.5305738,0.200498361 L13.5305738,6.2359082 L14.3025906,6.2359082 L14.3025906,3.46149508 L15.2082685,3.46149508 L15.2082685,3.46149508 L15.2082685,3.46149508 Z"></path>
                        <path d="M20.8097114,1.81454426 C20.8097114,1.10291148 20.5163758,0.718963934 19.7347752,0.718963934 C19.491755,0.718963934 18.6194497,0.760563934 18.6194497,2.02356721 L18.6194497,4.06350164 C18.6194497,5.38447213 19.0055436,5.71812459 19.7347752,5.71812459 C20.289443,5.71812459 20.6582517,5.56723934 20.8186107,5.45079344 L20.8186107,3.64494426 L19.7020872,3.64494426 L19.7020872,2.97627541 L21.5902852,2.97627541 L21.5902852,5.9112918 C21.0948322,6.17862295 20.516547,6.36241311 19.7347752,6.36241311 C18.4517315,6.36241311 17.8304899,5.70039344 17.8304899,4.0290623 L17.8304899,2.04811803 C17.8304899,0.844616393 18.4517315,0.0751868852 19.7347752,0.0751868852 C21.0450302,0.0751868852 21.6662718,0.551711475 21.6151007,1.81437377 L20.8097114,1.81454426 L20.8097114,1.81454426 L20.8097114,1.81454426 Z"></path>
                        <polygon points="25.2882987 0.200498361 26.0683591 0.200498361 24.4163356 3.93597377 24.4163356 6.2359082 23.6450034 6.2359082 23.6450034 3.93597377 22.0160839 0.200498361 22.8808591 0.200498361 24.0637852 3.11778361"></polygon>
                        <path d="M28.6762047,4.4387541 L28.6762047,4.61384918 C28.6762047,5.43374426 29.1976711,5.6930623 29.6922685,5.6930623 C30.3051242,5.6930623 30.7747349,5.43374426 30.7747349,4.71478033 C30.7747349,3.37744262 28.0553054,3.52866885 28.0553054,1.71327213 C28.0553054,0.644118033 28.8191074,0.075357377 29.8358557,0.075357377 C30.9433087,0.075357377 31.5645503,0.610531148 31.5130369,1.83994754 L30.7076477,1.83994754 C30.7156913,1.17860984 30.5062148,0.74402623 29.7769832,0.74402623 C29.3145604,0.74402623 28.8454631,0.977770492 28.8454631,1.63041311 C28.8454631,2.95939672 31.5647215,2.76793443 31.5647215,4.68136393 C31.5647215,5.95203934 30.6830034,6.36258361 29.6837114,6.36258361 C27.8964866,6.37792787 27.8964866,5.01603934 27.9134295,4.43892459 L28.6762047,4.43892459 L28.6762047,4.4387541 L28.6762047,4.4387541 Z"></path>
                        <polygon points="35.8726812 0.200498361 35.8726812 0.86984918 34.2786745 0.86984918 34.2786745 6.23607869 33.5061443 6.23607869 33.5061443 0.86984918 31.9119664 0.86984918 31.9119664 0.200498361 35.8726812 0.200498361"></polygon>
                        <path d="M38.5963893,4.13016393 L36.6583893,4.13016393 L37.6058255,0.911790164 L37.6224262,0.911790164 L38.5963893,4.13016393 L38.5963893,4.13016393 Z M35.2322718,6.2359082 L36.0119899,6.2359082 L36.4656846,4.79763934 L38.8072349,4.79763934 L39.2426174,6.2359082 L40.1070503,6.2359082 L38.1353356,0.200498361 L37.1533289,0.200498361 L35.2322718,6.2359082 L35.2322718,6.2359082 Z"></path>
                        <path d="M41.4741242,0.86984918 L42.6404497,0.86984918 C43.2361913,0.86984918 43.454396,1.3540459 43.454396,1.78897049 C43.454396,2.31681311 43.1843356,2.79231475 42.6317215,2.79231475 L41.473953,2.79231475 L41.473953,0.86984918 L41.4741242,0.86984918 L41.4741242,0.86984918 Z M42.3799732,3.46149508 C42.6404497,3.46149508 43.2363624,3.49405902 43.2950638,4.23041311 C43.3619799,5.03257705 43.3116644,5.81905574 43.5305537,6.23607869 L44.3350872,6.23607869 C44.2173423,5.8615082 44.1351946,4.9151082 44.1264664,4.65630164 C44.0848792,3.44359344 43.832104,3.21104262 43.1357315,3.10192787 L43.1357315,3.0845377 C43.8475067,2.95939672 44.2423289,2.4168918 44.2423289,1.70594098 C44.2423289,0.953731148 43.8651342,0.200498361 42.7910537,0.200498361 L40.7017651,0.200498361 L40.7017651,6.2359082 L41.4742953,6.2359082 L41.4742953,3.46149508 L42.3799732,3.46149508 L42.3799732,3.46149508 L42.3799732,3.46149508 Z"></path>
                    </g>
                </g>
            </g>
        </g>
    </g>
</svg>
