<?xml version="1.0" encoding="UTF-8" standalone="no"?>
<svg width="61px" height="56px" viewBox="0 0 61 56" version="1.1" xmlns="http://www.w3.org/2000/svg" xmlns:xlink="http://www.w3.org/1999/xlink">
    <!-- Generator: Sketch 39.1 (31720) - http://www.bohemiancoding.com/sketch -->
    <g id="Floors" stroke="none" stroke-width="1" fill="none" fill-rule="evenodd">
        <g id="icon-floors" transform="translate(1.000000, 0.000000)" stroke="#000000">
            <polygon id="floor" fill="#60BFDD" points="5.65629851 46.3840448 34.982791 54.546209 54.9354776 43.6627761 25.609806 35.499791"></polygon>
            <polyline id="door" stroke-width="0.75" stroke-linecap="round" stroke-linejoin="round" stroke-dasharray="1.924,1.924" points="15.890625 49.3486328 15.890625 28.3730329 24.2619629 30.4128418 24.2619629 51.5232332"></polyline>
            <polyline id="east-wall" stroke-width="0.75" stroke-linecap="round" stroke-linejoin="round" stroke-dasharray="1.924,1.924" points="35.050293 54.8276367 35.1362305 29.9667969 54.9301758 21.1054688 54.9301758 43.555571"></polyline>
            <polygon id="east-window" stroke-width="0.75" stroke-linecap="round" stroke-linejoin="round" stroke-dasharray="1.924,1.924" points="42.223877 43.2496026 48.6379395 39.983001 48.6379395 30 42 32.9300225"></polygon>
            <polyline id="east-roof" stroke-width="0.75" stroke-linecap="round" stroke-linejoin="round" stroke-dasharray="1.924,1.924" points="18.9755859 8.1550293 39.098877 35.6411133 59.4199219 26.6750488 39.1379395 0.543212891"></polyline>
            <polyline id="west-wall" stroke-width="0.75" stroke-linecap="round" stroke-linejoin="round" stroke-dasharray="1.924,1.924" points="5.46875 46.5410156 5.46875 23.774453 25.934082 14.7114258 25.934082 35.433275"></polyline>
            <polygon id="west-window" stroke-width="0.75" stroke-linecap="round" stroke-linejoin="round" stroke-dasharray="1.924,1.924" points="13.223877 36.2496026 19.6379395 32.983001 19.6379395 23 13 25.9300225"></polygon>
            <polygon id="west-roof" stroke-width="0.75" stroke-linecap="round" stroke-linejoin="round" stroke-dasharray="1.924,1.924" points="18.949707 8.11425781 0.125732422 29.2871094 20.7561035 20.6325684 39.2619629 0.559570312"></polygon>
            <path d="M25.6855469,15.5356445 L55.230957,21.2060547" id="Path-2" stroke-width="0.75" stroke-linecap="round" stroke-linejoin="round" stroke-dasharray="1.924,1.924"></path>
        </g>
    </g>
</svg>
