<?xml version="1.0" encoding="UTF-8" standalone="no"?>
<svg width="55px" height="55px" viewBox="0 0 55 55" version="1.1" xmlns="http://www.w3.org/2000/svg" xmlns:xlink="http://www.w3.org/1999/xlink">
    <!-- Generator: Sketch 39.1 (31720) - http://www.bohemiancoding.com/sketch -->
    <g id="HVAC" stroke="none" stroke-width="1" fill="none" fill-rule="evenodd">
        <g id="icon-hvac" stroke="#000000" fill="#60BFDD">
            <path d="M27.4998,21.5518 C24.2488,21.5518 21.6128,24.1878 21.6128,27.4378 C21.6128,30.6888 24.2488,33.3248 27.4998,33.3248 C30.7508,33.3248 33.3858,30.6888 33.3858,27.4378 C33.3858,24.1878 30.7508,21.5518 27.4998,21.5518" id="Fill-1"></path>
            <path d="M25.0402,20.3183 C25.8112,20.0513 26.6382,19.9043 27.5002,19.9043 C28.4672,19.9043 29.3922,20.0893 30.2422,20.4233 C31.6322,16.1773 33.6392,8.5973 31.8722,4.4863 C29.7982,-0.3377 15.0542,-1.2977 18.2992,4.4863 C22.2162,11.4663 24.1392,17.0493 25.0402,20.3183" id="Fill-5"></path>
            <path d="M29.9285,34.5686 C29.1665,34.8286 28.3495,34.9726 27.4995,34.9726 C26.5465,34.9726 25.6335,34.7926 24.7935,34.4676 C23.4025,38.6916 21.3455,46.3666 23.1285,50.5136 C25.2015,55.3376 39.9455,56.2976 36.7005,50.5136 C32.7375,43.4526 30.8165,37.8216 29.9285,34.5686" id="Fill-9"></path>
            <path d="M19.9651,27.4382 C19.9651,26.4982 20.1401,25.5982 20.4561,24.7682 C16.2161,23.3772 8.6081,21.3562 4.4861,23.1282 C-0.3379,25.2012 -1.2979,39.9462 4.4861,36.7002 C11.5201,32.7532 17.1351,30.8312 20.3941,29.9392 C20.1171,29.1562 19.9651,28.3142 19.9651,27.4382" id="Fill-13"></path>
            <path d="M35.034,27.4382 C35.034,28.4192 34.844,29.3572 34.5,30.2172 C38.731,31.6082 46.378,33.6502 50.514,31.8722 C55.338,29.7982 56.298,15.0542 50.514,18.2992 C43.507,22.2312 37.908,24.1542 34.644,25.0502 C34.896,25.8012 35.034,26.6032 35.034,27.4382" id="Fill-17"></path>
            <path d="M4.7208,17.7323 C12.4488,19.9043 17.7648,22.5023 20.7088,24.1763 C21.4818,22.5733 22.8078,21.2853 24.4358,20.5573 C22.4168,16.5723 18.4758,9.7933 14.3188,8.1353 C9.4408,6.1903 -1.6642,15.9373 4.7208,17.7323" id="Fill-21"></path>
            <path d="M50.2788,37.2675 C42.5078,35.0825 37.1748,32.4685 34.2418,30.7955 C33.4538,32.3705 32.1318,33.6325 30.5128,34.3415 C32.5168,38.3125 36.4898,45.1925 40.6818,46.8645 C45.5588,48.8095 56.6638,39.0625 50.2788,37.2675" id="Fill-25"></path>
            <path d="M20.6306,30.5275 C16.6556,32.5345 9.8026,36.4995 8.1356,40.6815 C6.1906,45.5595 15.9376,56.6635 17.7326,50.2785 C19.9226,42.4875 22.5446,37.1475 24.2176,34.2185 C22.6316,33.4485 21.3566,32.1375 20.6306,30.5275" id="Fill-29"></path>
            <path d="M34.4143,24.4496 C38.3953,22.4346 45.2033,18.4856 46.8653,14.3176 C48.8093,9.4406 39.0623,-1.6644 37.2673,4.7206 C35.1003,12.4296 32.5113,17.7376 30.8373,20.6856 C32.4293,21.4766 33.7043,22.8126 34.4143,24.4496" id="Fill-33"></path>
        </g>
    </g>
</svg>
