<?xml version="1.0" encoding="UTF-8" standalone="no"?>
<svg viewBox="0 0 113 113" version="1.1" xmlns="http://www.w3.org/2000/svg" xmlns:xlink="http://www.w3.org/1999/xlink">
    <!-- Generator: Sketch 39.1 (31720) - http://www.bohemiancoding.com/sketch -->
    <defs>
        <rect id="path-1" x="0" y="0" width="113" height="113"></rect>
        <mask id="mask-2" maskContentUnits="userSpaceOnUse" maskUnits="objectBoundingBox" x="0" y="0" width="113" height="113" fill="white">
            <use xlink:href="#path-1"></use>
        </mask>
    </defs>
    <g id="Page-1" stroke="none" stroke-width="1" fill="none" fill-rule="evenodd">
        <g id="job-photo-default">
            <use id="background" stroke="#D5E0E3" mask="url(#mask-2)" stroke-width="2" fill="#F2F5F6" xlink:href="#path-1"></use>
            <path d="M68.042467,61.0752851 C68.042467,62.0847043 67.2243465,62.9028248 66.2149273,62.9028248 L59.3619722,62.9028248 C58.352553,62.9028248 57.5341137,62.0847043 57.5341137,61.0752851 L57.5341137,54.22233 C57.5341137,53.2129108 58.352553,52.3944715 59.3619722,52.3944715 L66.2149273,52.3944715 C67.2243465,52.3944715 68.042467,53.2129108 68.042467,54.22233 L68.042467,61.0752851 Z M68.042467,72.9118888 C68.042467,73.9213079 67.2243465,74.7394285 66.2149273,74.7394285 L59.3619722,74.7394285 C58.352553,74.7394285 57.5341137,73.9213079 57.5341137,72.9118888 L57.5341137,66.0589336 C57.5341137,65.0495145 58.352553,64.2310751 59.3619722,64.2310751 L66.2149273,64.2310751 C67.2243465,64.2310751 68.042467,65.0495145 68.042467,66.0589336 L68.042467,72.9118888 Z M56.3652789,61.0752851 C56.3652789,62.0847043 55.5471584,62.9028248 54.5377392,62.9028248 L47.6847841,62.9028248 C46.6753649,62.9028248 45.8569256,62.0847043 45.8569256,61.0752851 L45.8569256,54.22233 C45.8569256,53.2129108 46.6753649,52.3944715 47.6847841,52.3944715 L54.5377392,52.3944715 C55.5471584,52.3944715 56.3652789,53.2129108 56.3652789,54.22233 L56.3652789,61.0752851 Z M56.3652789,72.9118888 C56.3652789,73.9213079 55.5471584,74.7394285 54.5377392,74.7394285 L47.6847841,74.7394285 C46.6753649,74.7394285 45.8569256,73.9213079 45.8569256,72.9118888 L45.8569256,66.0589336 C45.8569256,65.0495145 46.6753649,64.2310751 47.6847841,64.2310751 L54.5377392,64.2310751 C55.5471584,64.2310751 56.3652789,65.0495145 56.3652789,66.0589336 L56.3652789,72.9118888 Z M89.8890911,55.3028485 L58.709325,24.1234013 C57.2114566,22.6255329 54.7841957,22.6255329 53.2866461,24.1234013 L22.1071989,55.3028485 C20.6096493,56.8003981 20.6523727,59.2710201 22.1071989,60.7252086 C23.0190557,61.6377031 24.9961272,62.1207322 27.5327472,62.319364 L27.5327472,85.247463 C27.5327472,87.3603565 29.2458266,89.0734359 31.3587201,89.0734359 L80.6407581,89.0734359 C82.7536516,89.0734359 84.466731,87.3603565 84.466731,85.247463 L84.466731,62.2559166 C87.0250315,62.0709946 89.0065667,61.607733 89.8890911,60.7252086 C91.353801,59.2601798 91.3863218,56.8000793 89.8890911,55.3028485 L89.8890911,55.3028485 Z" id="house" fill="#262B2F" opacity="0.196595149"></path>
        </g>
    </g>
</svg>
