<?xml version="1.0" encoding="UTF-8"?>
<svg width="60px" height="60px" viewBox="0 0 60 60" version="1.1" xmlns="http://www.w3.org/2000/svg" xmlns:xlink="http://www.w3.org/1999/xlink">
    <!-- Generator: Sketch 40.3 (33839) - http://www.bohemiancoding.com/sketch -->
    <title>icon-ceilings-roof</title>
    <desc>Created with Sketch.</desc>
    <defs></defs>
    <g id="Ceilings-&amp;-Roofs" stroke="none" stroke-width="1" fill="none" fill-rule="evenodd">
        <g id="icon-ceilings-roof">
            <g id="Group" transform="translate(0.000000, 2.000000)">
                <polygon id="background" fill="#FFFFFF" points="5.93739488 45.8159473 35.3071115 53.9707348 55.6435117 42.9074506 55.37903 20.0572696 39.6489871 0.058595353 19.632654 7.46087405 6.02709393 22.450649"></polygon>
                <polygon id="floor" stroke="#000000" stroke-width="0.4643" stroke-dasharray="1.9753,1.9753" points="5.96227784 46.6253123 35.3070447 54.8200999 55.4873913 43.7897253 26.199882 35.6570114"></polygon>
                <polygon id="left-roof" stroke="#000000" stroke-linejoin="round" fill="#018EDC" points="0.575358206 29.2610745 19.0690148 8.13720891 39.4531341 0.739746265 21.2882536 20.3841193"></polygon>
                <polyline id="door" stroke="#000000" stroke-width="0.4643" stroke-dasharray="1.9753,1.9753" points="24.672657 51.6211682 24.8947307 30.608179 16.2991402 28.2857695 16.0909796 49.0932737"></polyline>
                <polygon id="left-window" stroke="#000000" stroke-width="0.4643" stroke-dasharray="1.9753,1.9753" points="13.4710449 35.6826971 20.081885 32.2830964 20.081885 23.1080842 13.4586034 26.0305173"></polygon>
                <polyline id="left-wall" stroke="#000000" stroke-width="0.4643" stroke-dasharray="1.9753,1.9753" points="5.98689323 46.40966 5.98689323 23.589511 26.2689121 14.656865 26.2689121 35.5866972"></polyline>
                <polygon id="right-window" stroke="#000000" stroke-width="0.4643" stroke-dasharray="1.9753,1.9753" points="42.9206947 43.8785548 42.9206947 33.7637654 49.4608993 30.6467074 49.4608993 40.4245015"></polygon>
                <polyline id="right-wall" stroke="#000000" stroke-width="0.4643" stroke-dasharray="1.9753,1.9753" points="35.4386835 54.7505346 35.4386835 30.0575432 55.3418393 21.162287 55.68699 43.7683207"></polyline>
                <polygon id="right-ceiling" stroke="#000000" stroke-linejoin="round" fill="#018EDC" points="39.6175222 35.8365968 19.1512088 8.13720891 39.6175222 0.739746265 59.7550594 26.7130596"></polygon>
            </g>
        </g>
    </g>
</svg>