<?xml version="1.0" encoding="UTF-8" standalone="no"?>
<svg width="61px" height="56px" viewBox="0 0 61 56" version="1.1" xmlns="http://www.w3.org/2000/svg" xmlns:xlink="http://www.w3.org/1999/xlink">
    <!-- Generator: Sketch 39.1 (31720) - http://www.bohemiancoding.com/sketch -->
    <g id="Interior-Walls" stroke="none" stroke-width="1" fill="none" fill-rule="evenodd">
        <g id="icon-interior-walls" transform="translate(1.000000, 0.000000)" stroke="#000000">
            <polygon id="floor" stroke-width="0.75" stroke-linecap="round" stroke-linejoin="round" stroke-dasharray="1.924,1.924" points="5.41235352 46.7844238 35.097168 55.0283203 55.1872559 43.8139648 25.609806 35.499791"></polygon>
            <polygon id="Path-2" fill="#60BFDD" points="26.1657715 14.5031738 55.0910645 21.0900879 55.0910645 43.7856643 26.029541 35.5083008"></polygon>
            <polygon id="east-window" stroke-width="0.75" stroke-linecap="round" stroke-linejoin="round" stroke-dasharray="1.924,1.924" points="42.223877 43.2496026 48.6379395 39.983001 48.6379395 30 42 32.9300225"></polygon>
            <polyline id="east-wall" stroke-width="0.75" stroke-linecap="round" stroke-linejoin="round" stroke-dasharray="1.924,1.924" points="35.050293 54.8276367 35.1362305 29.9667969 54.9301758 21.1054688 54.9301758 43.555571"></polyline>
            <polyline id="east-roof" stroke-width="0.75" stroke-linecap="round" stroke-linejoin="round" stroke-dasharray="1.924,1.924" points="18.9755859 8.1550293 39.098877 35.6411133 59.4199219 26.6750488 39.1379395 0.543212891"></polyline>
            <path d="M5.46875,46.5410156 L5.46875,23.774453 L25.934082,14.7114258 L25.934082,35.433275 L5.46875,46.5410156 Z M13.223877,36.2496026 L19.6379395,32.983001 L19.6379395,23 L13,25.9300225 L13.223877,36.2496026 Z" id="Combined-Shape" fill="#60BFDD"></path>
            <polygon id="west-roof" stroke-width="0.75" stroke-linecap="round" stroke-linejoin="round" stroke-dasharray="1.924,1.924" points="18.949707 8.11425781 0.125732422 29.2871094 20.7561035 20.6325684 39.2619629 0.559570312"></polygon>
            <polyline id="door" stroke-width="0.75" stroke-linecap="round" stroke-linejoin="round" stroke-dasharray="1.924,1.924" points="15.890625 49.3486328 15.890625 28.3730329 24.2619629 30.4128418 24.2619629 51.5232332"></polyline>
        </g>
    </g>
</svg>
