<?xml version="1.0" encoding="UTF-8"?>
<svg width="60px" height="66px" viewBox="0 0 60 66" version="1.1" xmlns="http://www.w3.org/2000/svg" xmlns:xlink="http://www.w3.org/1999/xlink">
    <!-- Generator: Sketch 40.3 (33839) - http://www.bohemiancoding.com/sketch -->
    <title>icon-slabs-floors-joists</title>
    <desc>Created with Sketch.</desc>
    <defs></defs>
    <g id="Slabs,-Floors-&amp;-Rim-Joists" stroke="none" stroke-width="1" fill="none" fill-rule="evenodd">
        <g id="icon-slabs-floors-joists">
            <polygon id="background" fill="#FFFFFF" points="6.11662564 51.3520708 5.87141481 32.0434236 0.560252568 34.3434289 19.1083851 13.2356325 39.7011786 5.62095329 59.7853904 31.7900859 55.2735713 33.8441781 55.2735713 48.7972228 35.434771 59.7077001"></polygon>
            <polygon id="floor" stroke="#000000" stroke-linejoin="round" fill="#018EDC" points="25.9726027 40.5890411 6 51.4383562 35.3424658 59.6575342 55.3972603 48.7260274"></polygon>
            <polyline id="left-wall" stroke="#000000" stroke-width="0.4643" stroke-dasharray="1.9753,1.9753" points="6.0343536 51.4677868 6.0343536 28.2741893 25.7882063 19.7543878 25.7882063 40.7034106"></polyline>
            <polygon id="left-window" stroke="#000000" stroke-width="0.4643" stroke-dasharray="1.9753,1.9753" points="13.56753 40.4922945 20.1487586 37.3972603 20.1487586 28.0879018 13.4979666 30.9963613"></polygon>
            <polyline id="left-ceiling" stroke="#000000" stroke-width="0.4643" stroke-dasharray="1.9753,1.9753" points="18.9206978 13.3529538 0.516374144 34.3632277 21.3431079 25.3874144 39.7094392 5.65817637"></polyline>
            <polyline id="door" stroke="#000000" stroke-width="0.4643" stroke-dasharray="1.9753,1.9753" points="16.291738 54.5778039 16.291738 33.597919 24.7372646 35.5661387 24.7372646 56.7246662"></polyline>
            <polyline id="right-wall" stroke="#000000" stroke-width="0.4643" stroke-dasharray="1.9753,1.9753" points="35.5372432 59.7158604 35.5372432 34.9013664 55.2145762 26.2311946 55.2145762 48.7168236"></polyline>
            <polyline id="right-window" stroke="#000000" stroke-width="0.4643" stroke-dasharray="1.9753,1.9753" points="42.739726 39.1413362 42.8092894 48.6372694 42.8092894 48.6372694 49.390518 45.5422351 49.390518 36.2328767"></polyline>
            <polygon id="right-ceiling" stroke="#000000" stroke-width="0.4643" stroke-dasharray="1.9753,1.9753" points="39.755458 40.7844606 59.8057577 31.7920591 39.6660959 5.61001712 19.1839683 13.2165026"></polygon>
        </g>
    </g>
</svg>