<?xml version="1.0" encoding="UTF-8"?>
<svg width="60px" height="60px" viewBox="0 0 60 60" version="1.1" xmlns="http://www.w3.org/2000/svg" xmlns:xlink="http://www.w3.org/1999/xlink">
    <!-- Generator: Sketch 40.3 (33839) - http://www.bohemiancoding.com/sketch -->
    <title>icon-electrical</title>
    <desc>Created with Sketch.</desc>
    <defs></defs>
    <g id="Plug-Loads,-Lighting,-PV,-Meters" stroke="none" stroke-width="1" fill="none" fill-rule="evenodd">
        <g id="icon-electrical">
            <path d="M29.8,45.1 L29.8,44.6 C29.6,38.9 27.4,34.7 24,29.7 C22,26.7 20.9,23.3 20.9,19.7 C20.9,9.9 28.9,1.9 38.7,1.9 L38.9,1.9 C48.6,2 56.5,10 56.5,19.7 C56.5,23.3 55.4,26.8 53.4,29.8 C50.1,34.6 47.9,39 47.6,44.7 L47.6,45.2 L45.6,45.2 L29.8,45.2 L29.8,45.1 Z" id="bulb-background" stroke="#000000" fill="#FFFFFF"></path>
            <g id="outlet" transform="translate(4.000000, 14.000000)">
                <rect id="plate" stroke="#000000" stroke-linejoin="round" fill="#018EDC" x="0.1" y="0.1" width="26.7" height="39.2"></rect>
                <g id="bottom-outlet" transform="translate(6.000000, 21.000000)">
                    <path d="M3.3,11.9 L3.2,11.8 C1.4,10.5 0.3,8.3 0.3,6.1 C0.3,3.9 1.4,1.7 3.2,0.4 L3.3,0.3 L11.6,0.3 L11.7,0.4 C13.5,1.7 14.6,3.9 14.6,6.1 C14.6,8.3 13.5,10.5 11.7,11.8 L11.6,11.9 L3.3,11.9 L3.3,11.9 Z" id="outlet-background" stroke="#000000" fill="#FFFFFF"></path>
                    <path d="M9.4,6.5 L10.5,6.5 L10.5,3 L9.4,3 L9.4,6.5 L9.4,6.5 Z M4.4,6.5 L5.5,6.5 L5.5,3 L4.4,3 L4.4,6.5 L4.4,6.5 Z M6.3,10.5 L8.5,10.5 L8.5,10.4 L8.5,9.4 L8.5,9.4 L8.5,9.4 C8.5,8.8 8,8.3 7.4,8.3 C6.8,8.3 6.3,8.8 6.3,9.4 L6.3,9.4 L6.3,9.4 L6.3,10.4 L6.3,10.5 L6.3,10.5 Z" id="socket" fill="#231F20"></path>
                </g>
                <g id="top-outlet" transform="translate(6.000000, 6.000000)">
                    <path d="M3.3,11.9 L3.2,11.8 C1.4,10.5 0.3,8.3 0.3,6.1 C0.3,3.9 1.4,1.7 3.2,0.4 L3.3,0.3 L11.6,0.3 L11.7,0.4 C13.5,1.7 14.6,3.9 14.6,6.1 C14.6,8.3 13.5,10.5 11.7,11.8 L11.6,11.9 L3.3,11.9 L3.3,11.9 Z" id="outlet-background" stroke="#000000" fill="#FFFFFF"></path>
                    <path d="M9.4,6.5 L10.5,6.5 L10.5,3 L9.4,3 L9.4,6.5 L9.4,6.5 Z M4.4,6.5 L5.5,6.5 L5.5,3 L4.4,3 L4.4,6.5 L4.4,6.5 Z M6.3,10.5 L8.5,10.5 L8.5,10.4 L8.5,9.4 L8.5,9.4 L8.5,9.4 C8.5,8.8 8,8.3 7.4,8.3 C6.8,8.3 6.3,8.8 6.3,9.4 L6.3,9.4 L6.3,9.4 L6.3,10.4 L6.3,10.5 L6.3,10.5 Z" id="socket" fill="#231F20"></path>
                </g>
            </g>
            <g id="bulb" transform="translate(20.000000, 1.000000)">
                <path d="M9.8,44.1 L9.8,43.6 C9.6,37.9 7.4,33.7 4,28.7 C2,25.7 0.9,22.3 0.9,18.7 C0.9,8.9 8.9,0.9 18.7,0.9 L18.9,0.9 C28.6,1 36.5,9 36.5,18.7 C36.5,22.3 35.4,25.8 33.4,28.8 C30.1,33.6 27.9,38 27.6,43.7 L27.6,44.2 L25.6,44.2 L9.8,44.2 L9.8,44.1 Z" stroke="#000000" fill-opacity="0.899999976" fill="#FFFFFF"></path>
                <path d="M18.7,58.2 C16.3,58.2 14.1,56.5 13.1,54 L12.8,53.3 L24.6,53.3 L24.3,54 C23.3,56.6 21.1,58.2 18.7,58.2 L18.7,58.2 Z" id="Shape" stroke="#000000" stroke-linejoin="round" fill="#018EDC"></path>
                <path d="M11.4,53.2 C10.5,53.2 9.8,52.4 9.8,51.4 L9.8,48.3 L27.5,48.3 L27.5,51.4 C27.5,52.4 26.8,53.2 25.9,53.2 L11.4,53.2 L11.4,53.2 Z" id="screw-bottom" stroke="#000000" stroke-linejoin="round" fill="#018EDC"></path>
                <rect id="screw-top" stroke="#000000" stroke-linejoin="round" fill="#018EDC" x="9.8" y="43.9" width="17.7" height="4.2"></rect>
                <path d="M24.7,24.5 C23.1,28.1 20.3,35.2 20.1,43.6 L17,43.6 C16.7,35.2 14,28.1 12.4,24.5 C12.3,24.2 12.4,24 12.5,23.9 C12.6,23.8 12.7,23.6 13,23.7 C13.4,23.8 13.9,24 14.6,24.5 C17,26.1 20.2,26.1 22.6,24.5 C23.3,24 23.8,23.8 24.2,23.7 C24.5,23.6 24.7,23.8 24.7,23.9 C24.7,24 24.8,24.2 24.7,24.5 L24.7,24.5 Z" id="filament" stroke="#231F20"></path>
            </g>
        </g>
    </g>
</svg>