<?xml version="1.0" encoding="UTF-8"?>
<svg width="60px" height="60px" viewBox="0 0 60 60" version="1.1" xmlns="http://www.w3.org/2000/svg" xmlns:xlink="http://www.w3.org/1999/xlink">
    <!-- Generator: Sketch 40.3 (33839) - http://www.bohemiancoding.com/sketch -->
    <title>icon-hvac-water</title>
    <desc>Created with Sketch.</desc>
    <defs>
        <path d="M58,44.504918 C58,46.5967213 57.2393443,48.3081967 55.8131148,49.8295082 C54.3868852,51.2557377 52.5803279,52.0163934 50.4885246,52.0163934 C48.3967213,52.0163934 46.6852459,51.2557377 45.1639344,49.8295082 C43.7377049,48.4032787 42.9770492,46.5967213 42.9770492,44.504918 C42.9770492,43.0786885 43.357377,41.747541 44.1180328,40.5114754 C44.2131148,40.4163934 44.4983607,39.9409836 45.0688525,39.1803279 C45.6393443,38.4196721 46.1147541,37.6590164 46.5901639,36.9934426 C47.0655738,36.3278689 47.5409836,35.4721311 48.0163934,34.4262295 C48.5868852,33.3803279 48.9672131,32.3344262 49.252459,31.4786885 C49.347541,31.1934426 49.5377049,31.0032787 49.7278689,30.8131148 C50.0131148,30.6229508 50.2032787,30.5278689 50.4885246,30.5278689 C50.7737705,30.5278689 50.9639344,30.6229508 51.2491803,30.8131148 C51.5344262,31.0032787 51.6295082,31.1934426 51.7245902,31.4786885 C52.0098361,32.4295082 52.3901639,33.3803279 52.9606557,34.4262295 C53.5311475,35.4721311 54.0065574,36.3278689 54.3868852,36.9934426 C54.7672131,37.6590164 55.3377049,38.4196721 55.9081967,39.1803279 C56.4786885,39.9409836 56.7639344,40.4163934 56.8590164,40.5114754 C57.6196721,41.747541 58,43.0786885 58,44.504918 L58,44.504918 Z" id="path-1"></path>
        <mask id="mask-2" maskContentUnits="userSpaceOnUse" maskUnits="objectBoundingBox" x="-2" y="-2" width="19.0229508" height="25.4885246">
            <rect x="40.9770492" y="28.5278689" width="19.0229508" height="25.4885246" fill="white"></rect>
            <use xlink:href="#path-1" fill="black"></use>
        </mask>
    </defs>
    <g id="HVAC-&amp;-Water" stroke="none" stroke-width="1" fill="none" fill-rule="evenodd">
        <path d="M23.9606557,23.4918033 C24.7213115,23.2065574 25.4819672,23.1114754 26.3377049,23.1114754 C27.2885246,23.1114754 28.1442623,23.3016393 28.904918,23.5868852 C30.2360656,19.5934426 32.1377049,12.3672131 30.4262295,8.46885246 C28.4295082,3.90491803 14.452459,2.95409836 17.495082,8.46885246 C21.2983607,15.0295082 23.104918,20.3540984 23.9606557,23.4918033 L23.9606557,23.4918033 Z" id="blade" stroke="#000000" stroke-linejoin="round" fill="#018EDC"></path>
        <ellipse id="center" stroke="#000000" stroke-linejoin="round" fill="#018EDC" cx="26.3377049" cy="30.242623" rx="5.60983607" ry="5.60983607"></ellipse>
        <path d="M28.6196721,36.9934426 C27.8590164,37.2786885 27.0983607,37.3737705 26.3377049,37.3737705 C25.3868852,37.3737705 24.5311475,37.1836066 23.7704918,36.8983607 C22.4393443,40.8918033 20.5377049,48.2131148 22.1540984,52.1114754 C24.1508197,56.6754098 38.1278689,57.6262295 35.0852459,52.1114754 C31.2819672,45.4557377 29.4754098,40.1311475 28.6196721,36.9934426 L28.6196721,36.9934426 Z" id="blade" stroke="#000000" stroke-linejoin="round" fill="#018EDC"></path>
        <path d="M36.7680306,31.3931434 C35.8296581,31.3931434 34.9851228,31.2090284 34.2344248,30.9328561 C32.9207033,34.7992692 31.0439582,41.8876934 32.6391915,45.6620491 C34.6097738,50.080807 48.4038498,51.0013816 45.4010577,45.6620491 C41.6475677,39.2180272 39.8646599,34.0628096 39.0201246,31.0249135 C38.2694266,31.3010859 37.5187286,31.3931434 36.7680306,31.3931434 Z" id="blade" stroke="#000000" stroke-linejoin="round" fill="#018EDC" transform="translate(38.926881, 40.131148) rotate(-44.000000) translate(-38.926881, -40.131148) "></path>
        <path d="M19.1114754,30.242623 C19.1114754,29.3868852 19.3016393,28.5311475 19.5868852,27.6754098 C15.5934426,26.3442623 8.36721311,24.442623 4.37377049,26.1540984 C-0.190163934,28.1508197 -1.14098361,42.1278689 4.37377049,39.0852459 C11.0295082,35.3770492 16.3540984,33.4754098 19.4918033,32.6196721 C19.3016393,31.8590164 19.1114754,31.0983607 19.1114754,30.242623 L19.1114754,30.242623 Z" id="blade" stroke="#000000" stroke-linejoin="round" fill="#018EDC"></path>
        <path d="M4.65901639,21.0196721 C11.9803279,23.1114754 17.0196721,25.5836066 19.8721311,27.104918 C20.6327869,25.5836066 21.8688525,24.347541 23.3901639,23.6819672 C21.4885246,19.8786885 17.6852459,13.4131148 13.7868852,11.8918033 C9.12786885,10.0852459 -1.42622951,19.3081967 4.65901639,21.0196721 L4.65901639,21.0196721 Z" id="blade" stroke="#000000" stroke-linejoin="round" fill="#018EDC"></path>
        <path d="M19.7770492,33.1901639 C15.9737705,35.0918033 9.50819672,38.895082 7.89180328,42.8885246 C6.0852459,47.547541 15.3081967,58.1016393 17.0196721,52.0163934 C19.1114754,44.6 21.5836066,39.5606557 23.2,36.7081967 C21.6786885,35.947541 20.442623,34.7114754 19.7770492,33.1901639 L19.7770492,33.1901639 Z" id="blade" stroke="#000000" stroke-linejoin="round" fill="#018EDC"></path>
        <path d="M32.8983607,27.3901639 C36.7016393,25.4885246 43.1672131,21.6852459 44.7836066,17.7868852 C46.5901639,13.1278689 37.3672131,2.57377049 35.6557377,8.65901639 C33.5639344,15.9803279 31.0918033,21.0196721 29.5704918,23.8721311 C30.9967213,24.5377049 32.2327869,25.8688525 32.8983607,27.3901639 L32.8983607,27.3901639 Z" id="blade" stroke="#000000" stroke-linejoin="round" fill="#018EDC"></path>
        <path d="M39.0466541,39.3710489 C42.8499328,37.4694096 49.3155065,33.6661309 50.9319,29.7677702 C52.7384574,25.1087538 43.5155065,14.5546555 41.8040311,20.6399014 C39.7122278,27.9612129 37.2400967,33.0005571 35.7187852,35.8530161 C37.1450147,36.5185899 38.3810803,37.8497374 39.0466541,39.3710489 L39.0466541,39.3710489 Z" id="blade" stroke="#000000" stroke-linejoin="round" fill="#018EDC" transform="translate(43.442010, 29.084711) rotate(46.000000) translate(-43.442010, -29.084711) "></path>
        <g id="drop">
            <use fill="#FFFFFF" fill-rule="evenodd" xlink:href="#path-1"></use>
            <use stroke="#FFFFFF" mask="url(#mask-2)" stroke-width="4" xlink:href="#path-1"></use>
            <use stroke="#010101" stroke-width="1" xlink:href="#path-1"></use>
        </g>
        <g id="icon-hvac-water"></g>
    </g>
</svg>