<?xml version="1.0" encoding="UTF-8"?>
<svg width="60px" height="60px" viewBox="0 0 60 60" version="1.1" xmlns="http://www.w3.org/2000/svg" xmlns:xlink="http://www.w3.org/1999/xlink">
    <!-- Generator: Sketch 40.3 (33839) - http://www.bohemiancoding.com/sketch -->
    <title>icon-interior-walls</title>
    <desc>Created with Sketch.</desc>
    <defs></defs>
    <g id="Interior-Walls" stroke="none" stroke-width="1" fill="none" fill-rule="evenodd">
        <g id="icon-interior-walls">
            <polygon id="Path-2" fill="#FFFFFF" points="5.94846961 49.0414437 35.1193279 57.5403467 54.9773919 46.575289 55.140732 31.1177761 59.2812232 29.2600332 39.1735338 3.00923052 18.8110017 10.5959172 0.293771404 31.4641214 6.04117616 29.1279966"></polygon>
            <polygon id="floor" stroke="#000000" stroke-width="0.4643" stroke-dasharray="1.9753,1.9753" points="5.75342466 49.3104666 35.0973887 57.50503 55.2771832 46.4749572 25.9904752 38.3424658"></polygon>
            <polygon id="back-wall" stroke="#000000" stroke-linejoin="round" fill="#018EDC" points="25.6945634 38.1281571 25.6438356 16.890411 55.1506849 23.3013699 55.0098994 46.4432524"></polygon>
            <polyline id="left-ceiling" stroke="#000000" stroke-width="0.4643" stroke-dasharray="1.9753,1.9753" points="18.4043236 10.7429366 0 31.7532106 20.8267337 22.7773973 39.1930651 3.04815925"></polyline>
            <path d="M5.91556079,49.0510756 L25.6271404,38.3091556 L25.6438356,16.9726027 L5.91780822,25.6849315 L5.91556079,49.0510756 Z M19.9726027,34.4794521 L13.5616438,37.7671233 L13.4794521,28.2328767 L20.0547945,25.2739726 L19.9726027,34.4794521 L19.9726027,34.4794521 Z" id="left-wall" stroke="#000000" stroke-linejoin="round" fill="#018EDC"></path>
            <polyline id="door" stroke="#000000" stroke-width="0.4643" stroke-dasharray="1.9753,1.9753" points="15.7753639 51.9677868 15.7753639 30.9879019 24.2208904 32.9561216 24.2208904 54.114649"></polyline>
            <polyline id="right-wall" stroke="#000000" stroke-width="0.4643" stroke-dasharray="1.9753,1.9753" points="35.020869 57.1058433 35.020869 32.2913493 54.6982021 23.6211775 54.6982021 46.1068065"></polyline>
            <polyline id="right-window" stroke="#000000" stroke-width="0.4643" stroke-dasharray="1.9753,1.9753" points="42.2233519 36.5313191 42.2929152 46.0272523 42.2929152 46.0272523 48.8741438 42.932218 48.8741438 33.6228596"></polyline>
            <polygon id="right-ceiling" stroke="#000000" stroke-width="0.4643" stroke-dasharray="1.9753,1.9753" points="39.2390839 38.1744435 59.2893836 29.182042 39.1497217 3 18.6675942 10.6064854"></polygon>
        </g>
    </g>
</svg>