<?xml version="1.0" encoding="utf-8"?>
<!-- Generator: Adobe Illustrator 21.0.1, SVG Export Plug-In . SVG Version: 6.00 Build 0)  -->
<svg version="1.1" id="Layer_1" xmlns="http://www.w3.org/2000/svg" xmlns:xlink="http://www.w3.org/1999/xlink" x="0px" y="0px"
	 viewBox="0 0 191.5 50" style="enable-background:new 0 0 191.5 50;" xml:space="preserve">
<style type="text/css">
	.st0{fill:#00AAFA;}
	.st1{fill:#005578;}
	.st2{fill:#FFFFFF;}
</style>
<path class="st0" d="M53.6,12.4V2.1h5.3v1.1h-4v3.3h3.7v1.1h-3.7v3.6H59v1.1H53.6z"/>
<path class="st0" d="M67.3,2.1v10.4h-1.7l-3.9-9h0v9h-1.1V2.1h1.8l3.9,8.9h0V2.1H67.3z"/>
<path class="st0" d="M69.1,12.4V2.1h5.3v1.1h-4v3.3h3.7v1.1h-3.7v3.6h4.1v1.1H69.1z"/>
<path class="st0" d="M77.3,7.7v4.8H76V2.1h3.6c1.8,0,2.5,1.3,2.5,2.6c0,1.2-0.7,2.2-1.9,2.4v0c1.2,0.2,1.6,0.6,1.7,2.7
	c0,0.4,0.2,2.1,0.4,2.7h-1.4c-0.4-0.7-0.3-2.1-0.4-3.4c-0.1-1.3-1.1-1.3-1.6-1.3H77.3z M77.3,6.5h2c0.9,0,1.4-0.8,1.4-1.7
	c0-0.7-0.4-1.6-1.4-1.6h-2V6.5z"/>
<path class="st0" d="M88.6,4.8c0-1.2-0.5-1.9-1.8-1.9c-0.4,0-1.9,0.1-1.9,2.2v3.5c0,2.3,0.7,2.8,1.9,2.8c0.9,0,1.6-0.3,1.9-0.5V8
	h-1.9V6.8h3.2v5c-0.8,0.5-1.8,0.8-3.2,0.8c-2.2,0-3.3-1.1-3.3-4V5.2c0-2.1,1.1-3.4,3.3-3.4c2.2,0,3.3,0.8,3.2,3H88.6z"/>
<path class="st0" d="M96.1,2.1h1.3l-2.8,6.4v3.9h-1.3V8.5l-2.8-6.4H92l2,5L96.1,2.1z"/>
<path class="st0" d="M102.5,9.4v0.3c0,1.4,0.9,1.9,1.7,1.9c1,0,1.9-0.4,1.9-1.7c0-2.3-4.7-2-4.7-5.2c0-1.8,1.3-2.8,3-2.8
	c1.9,0,3,0.9,2.9,3H106c0-1.1-0.3-1.9-1.6-1.9c-0.8,0-1.6,0.4-1.6,1.5c0,2.3,4.7,2,4.7,5.2c0,2.2-1.5,2.9-3.2,2.9
	c-3.1,0-3.1-2.3-3-3.3H102.5z"/>
<path class="st0" d="M114.6,2.1v1.1h-2.7v9.2h-1.3V3.2h-2.7V2.1H114.6z"/>
<path class="st0" d="M117.5,2.1h1.7l3.4,10.4h-1.5l-0.7-2.5h-4l-0.8,2.5h-1.3L117.5,2.1z M118.3,3.3L118.3,3.3l-1.7,5.5h3.3
	L118.3,3.3z"/>
<path class="st0" d="M124.8,7.7v4.8h-1.3V2.1h3.6c1.8,0,2.5,1.3,2.5,2.6c0,1.2-0.7,2.2-1.9,2.4v0c1.2,0.2,1.6,0.6,1.7,2.7
	c0,0.4,0.2,2.1,0.4,2.7h-1.4c-0.4-0.7-0.3-2.1-0.4-3.4c-0.1-1.3-1.1-1.3-1.6-1.3H124.8z M124.8,6.5h2c0.9,0,1.4-0.8,1.4-1.7
	c0-0.7-0.4-1.6-1.4-1.6h-2V6.5z"/>
<path class="st0" d="M135.9,3.8c0,1.5-1.2,2.7-2.7,2.7c-1.5,0-2.7-1.2-2.7-2.7c0-1.5,1.2-2.7,2.7-2.7C134.7,1,135.9,2.3,135.9,3.8z
	 M130.9,3.8c0,1.3,1,2.3,2.3,2.3c1.3,0,2.3-1,2.3-2.3c0-1.3-1-2.3-2.3-2.3C131.9,1.4,130.9,2.5,130.9,3.8z M132.7,5.4h-0.5V2.2h1.3
	c0.6,0,0.9,0.4,0.9,0.8c0,0.4-0.3,0.7-0.7,0.7v0c0.4,0,0.5,0.2,0.6,0.8c0,0.1,0.1,0.6,0.1,0.8h-0.5c-0.1-0.2-0.1-0.6-0.1-1
	c0-0.3-0.3-0.4-0.5-0.4h-0.5V5.4z M132.7,3.5h0.7c0.3,0,0.5-0.2,0.5-0.5c0-0.2-0.1-0.5-0.5-0.5h-0.7V3.5z"/>
<path class="st1" d="M59.2,47.8h-5.5V16.3h10.1c3.7,0,6.1,2.9,6.1,8.2c0,4-1.3,7-4.9,7.7v0.1c1.2,0.2,4.8,0.5,4.8,6.2
	c0,2,0.1,7.9,0.6,9.2h-5.4c-0.7-1.9-0.6-4.1-0.6-6.1c0-3.8,0.3-6.9-3.9-6.9h-1.4V47.8z M59.2,29.9h2.4c2.2,0,2.8-2.6,2.8-4.6
	c0-3-1.1-4.1-2.8-4.1h-2.4V29.9z"/>
<path class="st1" d="M86.8,43.7c0,1.4,0.1,2.7,0.3,4.1h-4.8l-0.2-2.9H82c-1.1,2.3-2.6,3.4-4.8,3.4c-3.6,0-4.9-3.2-4.9-7
	c0-7.3,4.7-7.6,9.5-7.5V32c0-1.9-0.2-3.2-2.1-3.2c-1.8,0-1.9,1.6-1.9,3.4h-5c0-2.7,0.7-4.4,1.9-5.4c1.2-1,2.8-1.4,4.8-1.4
	c6.5,0,7.3,3.4,7.3,7.4V43.7z M77.4,41c0,1.6,0.2,3.5,1.9,3.5c3,0,2.5-4.9,2.5-7.3C79.2,37.3,77.4,37.1,77.4,41z"/>
<path class="st1" d="M88.3,25.8h2.1v-3.5l5.1-2.7v6.2h2.7v3.8h-2.7v11.8c0,1.7,0,2.7,1.6,2.7c0.3,0,0.7,0,0.9-0.1v3.8
	c-0.7,0.1-1.4,0.2-2.7,0.2c-4.4,0-5-3.5-5-4.9V29.6h-2.1V25.8z"/>
<path class="st1" d="M104.5,37.8c0,2.6,0.1,6.5,2.3,6.5c1.8,0,2.2-2.1,2.2-3.9h5.2c-0.1,2.4-0.7,4.4-2,5.7c-1.2,1.4-3,2.1-5.4,2.1
	c-6.6,0-7.5-4.8-7.5-11.7c0-6,0.7-11.2,7.5-11.2c6.9,0,7.7,5.4,7.5,12.4H104.5z M109.2,34.3c0-2.1,0.1-5.2-2.4-5.2
	c-2.4,0-2.3,3.3-2.3,5.2H109.2z"/>
<path class="st1" d="M121.6,25.8v2.8h0.1c0.9-2.5,2.7-3.3,4.8-3.3v5.5c-4.5-0.3-4.6,2.8-4.6,5v12h-5.1v-22H121.6z"/>
<path class="st0" d="M129,47.8V16.3h7.8c3.5,0,7.3,1.6,7.3,9c0,7.2-4.7,8.6-7.3,8.6h-4.4v13.9H129z M132.4,30.5h3.7
	c1.4,0,4.7-0.4,4.7-5.4c0-4.8-3-5.3-3.7-5.3h-4.6V30.5z"/>
<path class="st0" d="M149.7,33.3v14.5h-3.3V16.3h9.1c4.7,0,6.3,3.9,6.3,7.9c0,3.7-1.7,6.5-4.8,7.2v0.1c3,0.6,4.1,1.8,4.3,8.1
	c0,1.4,0.4,6.3,0.9,8.2h-3.5c-0.9-2.2-0.7-6.3-1-10.5c-0.3-3.8-2.8-4-4-4H149.7z M149.7,29.9h5c2.4,0,3.6-2.5,3.6-5.2
	c0-2.3-0.9-4.8-3.5-4.8h-5.1V29.9z"/>
<path class="st0" d="M164.9,36.3V26c0-6.3,2.7-10.3,8.3-10.3c5.6,0,8.3,4,8.3,10.3v10.3c0,8.7-2.7,12.2-8.3,12.2
	C167.6,48.5,164.9,45,164.9,36.3z M178,36.5V25.8c0-6.6-3.8-6.8-4.8-6.8s-4.8,0.2-4.8,6.8v10.6c0,6.9,1.7,8.6,4.8,8.6
	C176.3,45.1,178,43.4,178,36.5z"/>
<path class="st0" d="M185.2,15.7v0.7H184v4.4h-0.7v-4.4h-1.2v-0.7H185.2z M189.9,20.7h-0.7v-4h0l-1.2,4h-0.6l-1.1-4h0v4h-0.7v-5h1.1
	l1,3.7h0l1-3.7h1.1V20.7z"/>
<rect x="2" y="2.1" class="st0" width="45.8" height="45.8"/>
<g>
	<g>
		<path class="st2" d="M25.3,11.3l-13.8,5.9l7.5,0.1l5.9,6.6L38.3,16l-6.7-5.7L25.3,11.3z M15,16.4l10.1-4.5l5.2-0.7l5.1,4.5
			l-9.9,5.7l-4.7-5.1L15,16.4z"/>
		<path class="st2" d="M24.9,26.1l-13.4-7.8v11.2l13.4,7.8l13.4-7.8V18.3L24.9,26.1z"/>
	</g>
	<polygon class="st0" points="13.4,21.6 13.4,28.3 22.9,34 22.9,27.3 	"/>
	<polygon class="st0" points="36.4,21.6 26.9,27.3 26.9,34 36.4,28.3 	"/>
	<polygon class="st2" points="33.5,33.4 34.4,33.9 24.9,39.5 15.4,33.9 16.4,33.5 14.4,32.3 11.5,33.6 24.9,41.8 38.3,33.6 
		35.5,32.2 	"/>
</g>
</svg>
